# xmcd CD database file
#
# Track frame offsets:
#	150
#	9660
#	29775
#	48862
#	80055
#
# Disc length: 1304 seconds
#
# Revision: 0
# Processed by: cddbd v1.5.1PL2 Copyright (c) Steve Scherf et al.
# Submitted via: CDex 1.51
#
DISCID=3a051605
DTITLE=Jill's Project - Bloody Chronicle -experiment edition-
DYEAR=2005
DGENRE=Rock
TTITLE0=Alchemist
TTITLE1=Emergency Occurrence
TTITLE2=Midnight Raider
TTITLE3=The end of 1000 years
TTITLE4=daydream
EXTD=YEAR: 2005
EXTT0=
EXTT1=
EXTT2=
EXTT3=
EXTT4=
PLAYORDER=
